<svg id="Layer_1" data-name="Layer 1" xmlns="http://www.w3.org/2000/svg" xmlns:xlink="http://www.w3.org/1999/xlink" viewBox="0 0 1523.15 657.31"><defs><style>.cls-1{fill:url(#linear-gradient);}.cls-2{fill:url(#linear-gradient-2);}.cls-3{fill:url(#linear-gradient-3);}.cls-4{fill:url(#linear-gradient-4);}.cls-5{fill:url(#linear-gradient-5);}.cls-6{fill:url(#linear-gradient-6);}.cls-7{font-size:260.39px;fill:#fff;font-family:Impact;}.cls-8{font-size:168.7px;font-family:BaskOldFace, Baskerville Old Face;}</style><linearGradient id="linear-gradient" x1="416.33" y1="1097.75" x2="255.53" y2="-68.65" gradientUnits="userSpaceOnUse"><stop offset="0" stop-color="#fff"/><stop offset="0.97" stop-color="#2e3192"/></linearGradient><linearGradient id="linear-gradient-2" x1="496.15" y1="1043.54" x2="335.35" y2="-122.86" gradientUnits="userSpaceOnUse"><stop offset="0" stop-color="#fff"/><stop offset="0.95" stop-color="#2e3192"/></linearGradient><linearGradient id="linear-gradient-3" x1="407.81" y1="1155.47" x2="247.01" y2="-10.93" gradientUnits="userSpaceOnUse"><stop offset="0" stop-color="#fff"/><stop offset="0.94" stop-color="#2e3192"/></linearGradient><linearGradient id="linear-gradient-4" x1="304.65" y1="1069.94" x2="143.85" y2="-96.46" gradientUnits="userSpaceOnUse"><stop offset="0" stop-color="#fff"/><stop offset="1" stop-color="#2e3192"/></linearGradient><linearGradient id="linear-gradient-5" x1="405.17" y1="1056.09" x2="244.37" y2="-110.31" xlink:href="#linear-gradient-4"/><linearGradient id="linear-gradient-6" x1="292.29" y1="1071.65" x2="131.49" y2="-94.75" gradientUnits="userSpaceOnUse"><stop offset="0" stop-color="#fff"/><stop offset="0.93" stop-color="#2e3192"/></linearGradient></defs><rect class="cls-1" x="70.49" width="392.32" height="23.94"/><path class="cls-2" d="M319.18,101.74V213.62a22.44,22.44,0,1,1-23.94,0V77.8H462.81v23.94Z"/><path class="cls-3" d="M327.16,294.57a22.24,22.24,0,0,1-10.31,18.76V599.45H292.91V313.33a22.27,22.27,0,1,1,34.25-18.76Z"/><path class="cls-4" d="M251.19,508.79a22.31,22.31,0,0,1-10.48,18.95v79.69H216.77V527.74a22.43,22.43,0,1,1,34.42-18.95Z"/><path class="cls-5" d="M532.63,48.88a28.92,28.92,0,0,1-54.26,13.95H278.78V602.08a28.93,28.93,0,1,1-23.93,0V62.83H54.26A28.92,28.92,0,1,1,56.09,38.9H476.54a28.93,28.93,0,0,1,56.09,10Z"/><path class="cls-6" d="M251.19,445.29a22.45,22.45,0,1,1-33.68-19.39h-.74V101.74H73.15V77.8H240.71V425.9H240A22.24,22.24,0,0,1,251.19,445.29Z"/><text class="cls-7" transform="translate(398.42 374.47)">Green Line<tspan class="cls-8"><tspan x="94.64" y="202.44">IT Consulting</tspan></tspan></text></svg>